<svg width="1200" height="300" viewBox="0 0 1200 300" fill="none" xmlns="http://www.w3.org/2000/svg">
  <defs>
    <linearGradient id="title" x1="80" y1="0" x2="460" y2="0" gradientUnits="userSpaceOnUse">
      <stop offset="0.62" stop-color="#111827"/>
      <stop offset="0.63" stop-color="#6c3cc9"/>
      <stop offset="1" stop-color="#7c4fd7"/>
    </linearGradient>
    <radialGradient id="blob" cx="0" cy="0" r="1" gradientUnits="userSpaceOnUse" gradientTransform="translate(965 142) rotate(90) scale(92 128)">
      <stop stop-color="#8b5cf6" stop-opacity="0.16"/>
      <stop offset="1" stop-color="#8b5cf6" stop-opacity="0"/>
    </radialGradient>
    <filter id="shadow" x="-4%" y="-10%" width="108%" height="120%">
      <feDropShadow dx="0" dy="20" stdDeviation="24" flood-color="#111827" flood-opacity="0.07"/>
    </filter>
  </defs>

  <rect width="1200" height="300" rx="18" fill="#ffffff"/>
  <rect x="1" y="1" width="1198" height="298" rx="18" stroke="#d8dee4"/>

  <g filter="url(#shadow)">
    <rect x="42" y="42" width="1116" height="216" rx="18" fill="#ffffff"/>
  </g>

  <text x="82" y="86" fill="#57606a" font-family="Geist Mono, Consolas, monospace" font-size="14">CodingFeng101 / README.md</text>
  <text x="82" y="158" fill="url(#title)" font-family="Microsoft YaHei, Noto Sans CJK SC, Arial, sans-serif" font-size="52" font-weight="800">你好，我是冯国栋</text>
  <text x="84" y="204" fill="#6c3cc9" font-family="Geist Mono, Consolas, monospace" font-size="18">AI Tool Builder · Knowledge Systems · Creative Systems</text>
  <text x="84" y="236" fill="#24292f" font-family="Microsoft YaHei, Noto Sans CJK SC, Arial, sans-serif" font-size="18">把知识、内容和想法，变成结构化、可编辑、可使用的 AI 工具。</text>

  <g transform="translate(800 60)">
    <ellipse cx="184" cy="104" rx="120" ry="86" fill="url(#blob)"/>
    <path d="M20 136C68 104 98 148 138 104C174 62 202 30 250 70C280 94 300 56 328 50" stroke="#b79af7" stroke-width="2.2" fill="none"/>
    <circle cx="138" cy="104" r="7" fill="#8b5cf6" fill-opacity="0.82"/>
    <circle cx="174" cy="62" r="8" fill="#8b5cf6" fill-opacity="0.72"/>
    <circle cx="250" cy="70" r="7" fill="#8b5cf6" fill-opacity="0.7"/>
    <circle cx="328" cy="50" r="7" fill="#8b5cf6" fill-opacity="0.42"/>
    <circle cx="202" cy="30" r="9" fill="#8b5cf6" fill-opacity="0.5"/>
    <circle cx="212" cy="124" r="6" fill="#8b5cf6" fill-opacity="0.34"/>
    <path d="M174 62L212 124L250 70" stroke="#b79af7" stroke-width="1.5"/>
    <circle cx="20" cy="136" r="4" fill="#8b5cf6" fill-opacity="0.25"/>
  </g>
</svg>
