<svg width="1200" height="420" viewBox="0 0 1200 420" fill="none" xmlns="http://www.w3.org/2000/svg">
  <defs>
    <linearGradient id="bg" x1="0" y1="0" x2="1200" y2="420" gradientUnits="userSpaceOnUse">
      <stop stop-color="#f8faf9"/>
      <stop offset="0.5" stop-color="#eef4f1"/>
      <stop offset="1" stop-color="#f7f1ea"/>
    </linearGradient>
    <linearGradient id="accent" x1="120" y1="70" x2="1040" y2="330" gradientUnits="userSpaceOnUse">
      <stop stop-color="#2f6f8f"/>
      <stop offset="0.48" stop-color="#496f5d"/>
      <stop offset="1" stop-color="#b45f44"/>
    </linearGradient>
    <filter id="softShadow" x="-20%" y="-20%" width="140%" height="140%">
      <feDropShadow dx="0" dy="18" stdDeviation="18" flood-color="#273633" flood-opacity="0.13"/>
    </filter>
    <clipPath id="cut">
      <rect x="0" y="0" width="1200" height="420" rx="28"/>
    </clipPath>
  </defs>

  <g clip-path="url(#cut)">
    <rect width="1200" height="420" fill="url(#bg)"/>
    <path d="M-70 315C150 212 295 433 497 302C719 158 827 84 1270 172" stroke="#dde7e3" stroke-width="2"/>
    <path d="M-42 360C170 246 352 438 562 306C748 189 911 144 1244 238" stroke="#e7ded5" stroke-width="2"/>

    <g opacity="0.9">
      <circle cx="1010" cy="84" r="5" fill="#2f6f8f">
        <animate attributeName="opacity" values="0.3;1;0.3" dur="3.4s" repeatCount="indefinite"/>
      </circle>
      <circle cx="1045" cy="118" r="3.5" fill="#b45f44">
        <animate attributeName="opacity" values="1;0.25;1" dur="4.1s" repeatCount="indefinite"/>
      </circle>
      <circle cx="920" cy="320" r="4" fill="#496f5d">
        <animate attributeName="opacity" values="0.35;1;0.35" dur="2.8s" repeatCount="indefinite"/>
      </circle>
    </g>

    <g filter="url(#softShadow)">
      <rect x="72" y="66" width="356" height="242" rx="24" fill="#162126"/>
      <path d="M102 118H312" stroke="#f8faf9" stroke-opacity="0.2" stroke-width="10" stroke-linecap="round"/>
      <path d="M102 158H368" stroke="#f8faf9" stroke-opacity="0.72" stroke-width="10" stroke-linecap="round"/>
      <path d="M102 198H287" stroke="#f8faf9" stroke-opacity="0.34" stroke-width="10" stroke-linecap="round"/>
      <path d="M102 238H348" stroke="#f8faf9" stroke-opacity="0.48" stroke-width="10" stroke-linecap="round"/>
      <rect x="102" y="270" width="96" height="14" rx="7" fill="#2f6f8f">
        <animate attributeName="width" values="96;150;96" dur="4.4s" repeatCount="indefinite"/>
      </rect>
    </g>

    <g transform="translate(398 46)">
      <text x="0" y="84" fill="#162126" font-family="Satoshi, Geist, Arial, sans-serif" font-size="64" font-weight="800" letter-spacing="0">CodingFeng101</text>
      <text x="4" y="126" fill="#49605a" font-family="Microsoft YaHei, Noto Sans CJK SC, Arial, sans-serif" font-size="18">开源 AI 工具 / 可编辑文档 / 多画布创作系统</text>
      <text x="4" y="194" fill="#23322f" font-family="Microsoft YaHei, Noto Sans CJK SC, Arial, sans-serif" font-size="30" font-weight="700">把“只能看”的视觉结果，重新变成能编辑的结构。</text>
      <text x="4" y="236" fill="#60706b" font-family="Microsoft YaHei, Noto Sans CJK SC, Arial, sans-serif" font-size="19">图片型 PPT 还原、PowerPoint 自动化、Codex Skill、创作型 AI 工作流。</text>

      <g transform="translate(5 284)">
        <rect x="0" y="0" width="138" height="38" rx="19" fill="#162126"/>
        <text x="22" y="25" fill="#f8faf9" font-family="Geist Mono, Consolas, monospace" font-size="14">Slide Alchemy</text>
        <rect x="154" y="0" width="122" height="38" rx="19" fill="#2f6f8f"/>
        <text x="176" y="25" fill="#f8faf9" font-family="Geist Mono, Consolas, monospace" font-size="14">CanvasAnvil</text>
        <rect x="292" y="0" width="126" height="38" rx="19" fill="#f7f1ea" stroke="#d8cbc0"/>
        <text x="314" y="25" fill="#23322f" font-family="Geist Mono, Consolas, monospace" font-size="14">Codex Skills</text>
      </g>
    </g>

    <g transform="translate(878 228)">
      <path d="M0 35C55 -9 110 78 166 35C214 -2 257 10 316 44" stroke="url(#accent)" stroke-width="18" stroke-linecap="round" opacity="0.92">
        <animateTransform attributeName="transform" type="translate" values="0 0; 18 -8; 0 0" dur="5.5s" repeatCount="indefinite"/>
      </path>
      <path d="M28 88C88 49 138 126 196 86C242 54 279 61 335 93" stroke="#162126" stroke-width="6" stroke-linecap="round" opacity="0.18">
        <animateTransform attributeName="transform" type="translate" values="0 0; -16 5; 0 0" dur="6.2s" repeatCount="indefinite"/>
      </path>
    </g>
  </g>
</svg>
