<svg width="1200" height="860" viewBox="0 0 1200 860" fill="none" xmlns="http://www.w3.org/2000/svg">
  <defs>
    <linearGradient id="title" x1="84" y1="0" x2="560" y2="0" gradientUnits="userSpaceOnUse">
      <stop offset="0.62" stop-color="#111827"/>
      <stop offset="0.63" stop-color="#6c3cc9"/>
      <stop offset="1" stop-color="#7c4fd7"/>
    </linearGradient>
    <radialGradient id="blob" cx="0" cy="0" r="1" gradientUnits="userSpaceOnUse" gradientTransform="translate(970 150) rotate(90) scale(88 118)">
      <stop stop-color="#8b5cf6" stop-opacity="0.16"/>
      <stop offset="1" stop-color="#8b5cf6" stop-opacity="0"/>
    </radialGradient>
    <filter id="cardShadow" x="-3%" y="-5%" width="106%" height="110%">
      <feDropShadow dx="0" dy="20" stdDeviation="28" flood-color="#111827" flood-opacity="0.075"/>
    </filter>
  </defs>

  <rect width="1200" height="860" rx="18" fill="#ffffff"/>
  <rect x="1" y="1" width="1198" height="858" rx="18" stroke="#d8dee4"/>

  <g filter="url(#cardShadow)">
    <rect x="42" y="42" width="1116" height="776" rx="18" fill="#ffffff"/>
  </g>

  <text x="84" y="88" fill="#57606a" font-family="Geist Mono, Consolas, monospace" font-size="14">CodingFeng101 / README.md</text>

  <text x="84" y="164" fill="url(#title)" font-family="Microsoft YaHei, Noto Sans CJK SC, Arial, sans-serif" font-size="50" font-weight="800">你好，我是冯国栋</text>
  <text x="84" y="210" fill="#6c3cc9" font-family="Geist Mono, Consolas, monospace" font-size="18">AI Tool Builder · Knowledge Systems · Creative Systems</text>
  <text x="84" y="252" fill="#24292f" font-family="Microsoft YaHei, Noto Sans CJK SC, Arial, sans-serif" font-size="18">我关注如何把知识、内容和想法，变成结构化、可编辑、可使用的 AI 工具。</text>

  <g transform="translate(818 82)">
    <ellipse cx="178" cy="96" rx="120" ry="86" fill="url(#blob)"/>
    <path d="M18 128C64 98 94 142 132 98C168 56 194 24 242 64C272 88 292 50 320 44" stroke="#b79af7" stroke-width="2" fill="none"/>
    <circle cx="132" cy="98" r="7" fill="#8b5cf6" fill-opacity="0.82"/>
    <circle cx="168" cy="56" r="8" fill="#8b5cf6" fill-opacity="0.72"/>
    <circle cx="242" cy="64" r="7" fill="#8b5cf6" fill-opacity="0.7"/>
    <circle cx="320" cy="44" r="7" fill="#8b5cf6" fill-opacity="0.42"/>
    <circle cx="194" cy="24" r="9" fill="#8b5cf6" fill-opacity="0.5"/>
    <circle cx="204" cy="118" r="6" fill="#8b5cf6" fill-opacity="0.34"/>
    <path d="M168 56L204 118L242 64" stroke="#b79af7" stroke-width="1.5"/>
    <circle cx="18" cy="128" r="4" fill="#8b5cf6" fill-opacity="0.25"/>
  </g>

  <g transform="translate(84 306)">
    <path d="M0 0H1032" stroke="#d8dee4"/>
    <g transform="translate(0 54)">
      <rect x="0" y="-22" width="24" height="24" rx="7" fill="#f5f0ff" stroke="#7c4fd7"/>
      <path d="M12 -16C8.6 -16 6 -13.4 6 -10C6 -6.6 8.6 -4 12 -4C15.4 -4 18 -6.6 18 -10C18 -13.4 15.4 -16 12 -16Z" stroke="#6c3cc9" stroke-width="1.5"/>
      <path d="M5 2C6.5 -1.2 8.8 -2.8 12 -2.8C15.2 -2.8 17.5 -1.2 19 2" stroke="#6c3cc9" stroke-width="1.5" stroke-linecap="round"/>
      <text x="42" y="-2" fill="#24292f" font-family="Microsoft YaHei, Noto Sans CJK SC, Arial, sans-serif" font-size="24" font-weight="700">关于我</text>
      <text x="0" y="44" fill="#24292f" font-family="Microsoft YaHei, Noto Sans CJK SC, Arial, sans-serif" font-size="17">计算机科学与技术本科生，关注 AI 应用开发、知识图谱、智能体、AI Skill 与可编辑内容生成。</text>
      <text x="0" y="72" fill="#24292f" font-family="Microsoft YaHei, Noto Sans CJK SC, Arial, sans-serif" font-size="17">相比单纯调用模型，我更关注把模型能力封装进具体任务流程。</text>
      <circle cx="9" cy="91" r="3" fill="#24292f"/>
      <circle cx="9" cy="132" r="3" fill="#24292f"/>
      <circle cx="560" cy="91" r="3" fill="#24292f"/>
      <circle cx="560" cy="132" r="3" fill="#24292f"/>
      <text x="32" y="97" fill="#24292f" font-family="Microsoft YaHei, Noto Sans CJK SC, Arial, sans-serif" font-size="16">可检索、可推理的知识结构</text>
      <text x="32" y="138" fill="#24292f" font-family="Microsoft YaHei, Noto Sans CJK SC, Arial, sans-serif" font-size="16">真正可编辑、可复用的 PPT</text>
      <text x="583" y="97" fill="#24292f" font-family="Microsoft YaHei, Noto Sans CJK SC, Arial, sans-serif" font-size="16">任务流程封装</text>
      <text x="583" y="138" fill="#24292f" font-family="Microsoft YaHei, Noto Sans CJK SC, Arial, sans-serif" font-size="16">真实可用的 AI 工具</text>
    </g>
  </g>

  <g transform="translate(84 526)">
    <path d="M0 0H1032" stroke="#d8dee4"/>
    <path d="M516 58V224" stroke="#d8dee4"/>

    <g transform="translate(0 58)">
      <rect x="0" y="-22" width="24" height="24" rx="7" fill="#f5f0ff" stroke="#7c4fd7"/>
      <path d="M6 -10H18M6 -4H18M9 -16H15" stroke="#6c3cc9" stroke-width="1.6" stroke-linecap="round"/>
      <text x="42" y="-2" fill="#6c3cc9" font-family="Outfit, Satoshi, Arial, sans-serif" font-size="23" font-weight="700">Knowledge Systems</text>
      <text x="0" y="42" fill="#24292f" font-family="Microsoft YaHei, Noto Sans CJK SC, Arial, sans-serif" font-size="16">知识结构化、图谱增强问答，</text>
      <text x="0" y="68" fill="#24292f" font-family="Microsoft YaHei, Noto Sans CJK SC, Arial, sans-serif" font-size="16">Human-LLM 协同知识建模。</text>
      <text x="0" y="112" fill="#24292f" font-family="Microsoft YaHei, Noto Sans CJK SC, Arial, sans-serif" font-size="16">• 知识图谱构建</text>
      <text x="0" y="144" fill="#24292f" font-family="Microsoft YaHei, Noto Sans CJK SC, Arial, sans-serif" font-size="16">• 图谱增强问答</text>
      <text x="0" y="176" fill="#24292f" font-family="Microsoft YaHei, Noto Sans CJK SC, Arial, sans-serif" font-size="16">• 实体关系组织</text>
      <text x="0" y="208" fill="#24292f" font-family="Microsoft YaHei, Noto Sans CJK SC, Arial, sans-serif" font-size="16">• Human-LLM 协同知识建模</text>
    </g>

    <g transform="translate(574 58)">
      <rect x="0" y="-22" width="24" height="24" rx="7" fill="#f5f0ff" stroke="#7c4fd7"/>
      <path d="M12 -17L18 -13.5V-6.5L12 -3L6 -6.5V-13.5L12 -17Z" stroke="#6c3cc9" stroke-width="1.6"/>
      <path d="M12 -13V-7" stroke="#6c3cc9" stroke-width="1.6" stroke-linecap="round"/>
      <text x="42" y="-2" fill="#6c3cc9" font-family="Outfit, Satoshi, Arial, sans-serif" font-size="23" font-weight="700">Creative Systems</text>
      <text x="0" y="42" fill="#24292f" font-family="Microsoft YaHei, Noto Sans CJK SC, Arial, sans-serif" font-size="16">PPT 可编辑化、多画布创作，</text>
      <text x="0" y="68" fill="#24292f" font-family="Microsoft YaHei, Noto Sans CJK SC, Arial, sans-serif" font-size="16">AI Skill 任务封装。</text>
      <text x="0" y="112" fill="#24292f" font-family="Microsoft YaHei, Noto Sans CJK SC, Arial, sans-serif" font-size="16">• PPT 与文档内容重建</text>
      <text x="0" y="144" fill="#24292f" font-family="Microsoft YaHei, Noto Sans CJK SC, Arial, sans-serif" font-size="16">• 可编辑 PowerPoint 生成</text>
      <text x="0" y="176" fill="#24292f" font-family="Microsoft YaHei, Noto Sans CJK SC, Arial, sans-serif" font-size="16">• 多画布 AI 创作</text>
      <text x="0" y="208" fill="#24292f" font-family="Microsoft YaHei, Noto Sans CJK SC, Arial, sans-serif" font-size="16">• AI Skill 任务封装</text>
    </g>
  </g>

  <g transform="translate(84 804)">
    <path d="M0 0H1032" stroke="#d8dee4"/>
    <text x="0" y="30" fill="#6c3cc9" font-family="Outfit, Satoshi, Arial, sans-serif" font-size="15" font-weight="700">Research</text>
    <text x="92" y="30" fill="#24292f" font-family="Microsoft YaHei, Noto Sans CJK SC, Arial, sans-serif" font-size="13.5">TKDE 在投：Human-LLM 协同领域知识图谱构建 · 授权发明专利：知识图谱搜索方法及系统</text>
    <text x="0" y="54" fill="#6c3cc9" font-family="Outfit, Satoshi, Arial, sans-serif" font-size="15" font-weight="700">Stack</text>
    <text x="92" y="54" fill="#24292f" font-family="Geist Mono, Consolas, monospace" font-size="13.5">Python · TypeScript · React · Vite · FastAPI · Node.js · MySQL · Neo4j · Docker</text>
  </g>
</svg>
