<svg width="560" height="260" viewBox="0 0 560 260" fill="none" xmlns="http://www.w3.org/2000/svg">
  <defs>
    <linearGradient id="paper" x1="0" y1="0" x2="560" y2="260" gradientUnits="userSpaceOnUse">
      <stop stop-color="#ffffff"/>
      <stop offset="1" stop-color="#f4f7f5"/>
    </linearGradient>
  </defs>
  <rect x="1" y="1" width="558" height="258" rx="22" fill="url(#paper)" stroke="#d8e0dc"/>
  <text x="32" y="52" fill="#162126" font-family="Satoshi, Geist, Arial, sans-serif" font-size="28" font-weight="800">Slide Alchemy</text>
  <text x="32" y="86" fill="#5d6d67" font-family="Satoshi, Geist, Arial, sans-serif" font-size="15">Image-based slides to editable PowerPoint structure.</text>
  <g transform="translate(32 122)">
    <rect x="0" y="0" width="132" height="84" rx="12" fill="#162126"/>
    <rect x="18" y="18" width="72" height="9" rx="4.5" fill="#f8faf9" opacity="0.82"/>
    <rect x="18" y="40" width="96" height="9" rx="4.5" fill="#f8faf9" opacity="0.36"/>
    <rect x="18" y="62" width="52" height="9" rx="4.5" fill="#2f6f8f"/>
    <path d="M162 42H224" stroke="#aab8b2" stroke-width="3" stroke-linecap="round">
      <animate attributeName="stroke-dasharray" values="2 14;14 2;2 14" dur="3s" repeatCount="indefinite"/>
    </path>
    <rect x="254" y="0" width="132" height="84" rx="12" fill="#f7f1ea" stroke="#dbcfc4"/>
    <rect x="272" y="18" width="72" height="9" rx="4.5" fill="#162126" opacity="0.84"/>
    <rect x="272" y="40" width="96" height="9" rx="4.5" fill="#162126" opacity="0.34"/>
    <rect x="272" y="62" width="52" height="9" rx="4.5" fill="#b45f44"/>
  </g>
  <text x="32" y="232" fill="#2f6f8f" font-family="Geist Mono, Consolas, monospace" font-size="14">Python / PPTX / image reconstruction</text>
</svg>

